<svg width="31" height="25" viewBox="0 0 31 25" version="1.1" xmlns="http://www.w3.org/2000/svg" xmlns:xlink="http://www.w3.org/1999/xlink">
<g id="Canvas" fill="none">
<path id="Vector" d="M 14.5775 8.86315L 3.03903 1.84773C 1.70621 1.03738 0 1.99682 0 3.55665L 0 21C 0 22.1046 0.895431 23 2 23L 15.625 23L 29 23C 30.1046 23 31 22.1046 31 21L 31 3.58676C 31 2.02049 29.2812 1.06205 27.9487 1.88534L 16.6679 8.85564C 16.0279 9.25103 15.2203 9.25393 14.5775 8.86315Z" transform="translate(0 2)" fill="white"/>
<path id="Vector 2" d="M 23.5726 0L 7.42743 0C 5.38384 0 4.65589 2.70342 6.42316 3.72958L 14.4957 8.41687C 15.1167 8.77744 15.8833 8.77744 16.5043 8.41687L 24.5768 3.72958C 26.3441 2.70342 25.6162 0 23.5726 0Z" fill="white"/>
</g>
</svg>
