<svg width="40" height="40" viewBox="0 0 40 40" version="1.1" xmlns="http://www.w3.org/2000/svg" xmlns:xlink="http://www.w3.org/1999/xlink">
<g id="Facebook  x28 alt x29"><path d="M 40 6.66711C 40 3.164 36.8373 0 33.3333 0L 6.66667 0C 3.16267 0 0 3.164 0 6.66711L 0 33.3329C 0 36.836 3.16267 40 6.66711 40L 20 40L 20 24.8889L 15.1111 24.8889L 15.1111 18.2222L 20 18.2222L 20 15.6249C 20 11.1453 23.3636 7.11111 27.5 7.11111L 32.8889 7.11111L 32.8889 13.7778L 27.5 13.7778C 26.9102 13.7778 26.2222 14.4938 26.2222 15.5662L 26.2222 18.2222L 32.8889 18.2222L 32.8889 24.8889L 26.2222 24.8889L 26.2222 40L 33.3333 40C 36.8373 40 40 36.836 40 33.3329L 40 6.66711Z" fill="#FFF"/></g>
</svg>

