<svg width="40" height="23" viewBox="0 0 40 23" version="1.1" xmlns="http://www.w3.org/2000/svg" xmlns:xlink="http://www.w3.org/1999/xlink">
<g id="Vector"><path d="M 39.7879 20.6105C 39.7394 20.5062 39.6943 20.4196 39.6523 20.3502C 38.9583 19.1003 37.6321 17.5661 35.6745 15.7472L 35.6331 15.7056L 35.6124 15.6852L 35.5915 15.6642L 35.5705 15.6642C 34.682 14.8173 34.1194 14.2478 33.8838 13.9562C 33.4527 13.4008 33.3561 12.8386 33.5917 12.269C 33.7582 11.8386 34.3834 10.9297 35.4661 9.54109C 36.0356 8.80515 36.4866 8.21532 36.8197 7.77094C 39.2218 4.57741 40.2632 2.5367 39.9437 1.64802L 39.8197 1.44034C 39.7363 1.31531 39.5211 1.20094 39.1744 1.09663C 38.8269 0.992533 38.3827 0.975319 37.8411 1.04469L 31.8433 1.08612C 31.7461 1.05169 31.6074 1.0549 31.4266 1.09663C 31.2461 1.13835 31.1558 1.15929 31.1558 1.15929L 31.0514 1.21144L 30.9685 1.2741C 30.8991 1.31553 30.8227 1.38841 30.7393 1.49257C 30.6564 1.59637 30.587 1.71819 30.5316 1.857C 29.8786 3.537 29.1362 5.09897 28.3029 6.54284C 27.7892 7.40381 27.3174 8.14996 26.8865 8.78173C 26.4562 9.41329 26.0952 9.87861 25.8038 10.1769C 25.512 10.4754 25.2487 10.7146 25.0122 10.8953C 24.7761 11.0761 24.5958 11.1524 24.471 11.1245C 24.3459 11.0966 24.2281 11.0688 24.1166 11.0411C 23.9223 10.9161 23.7661 10.7461 23.6483 10.5309C 23.53 10.3157 23.4503 10.0448 23.4087 9.71856C 23.3672 9.39206 23.3427 9.11123 23.3357 8.8751C 23.3292 8.63927 23.3322 8.3057 23.3463 7.87532C 23.3607 7.44473 23.3672 7.15339 23.3672 7.00064C 23.3672 6.47296 23.3775 5.90027 23.3982 5.28242C 23.4192 4.66458 23.4362 4.17505 23.4504 3.81441C 23.4645 3.4534 23.4711 3.07146 23.4711 2.66881C 23.4711 2.26615 23.4466 1.95037 23.3982 1.72118C 23.3503 1.49228 23.2769 1.27009 23.1801 1.05468C 23.0827 0.839495 22.9401 0.673035 22.7531 0.554865C 22.5657 0.43684 22.3327 0.343178 22.0555 0.273589C 21.3195 0.107056 20.3824 0.0169688 19.2437 0.0029634C 16.6613 -0.0247557 15.0021 0.141996 14.2662 0.503C 13.9746 0.655528 13.7108 0.863931 13.4749 1.12755C 13.2249 1.43312 13.19 1.59987 13.3705 1.6273C 14.2037 1.75211 14.7935 2.05067 15.1407 2.5227L 15.2658 2.77283C 15.3631 2.95329 15.4602 3.27279 15.5575 3.73089C 15.6546 4.18898 15.7172 4.69573 15.7448 5.25084C 15.8141 6.26455 15.8141 7.13231 15.7448 7.85417C 15.6753 8.57632 15.6096 9.13851 15.547 9.54116C 15.4843 9.94382 15.3906 10.2701 15.2658 10.5199C 15.1407 10.7698 15.0574 10.9226 15.0157 10.978C 14.9741 11.0335 14.9393 11.0684 14.9118 11.0821C 14.7313 11.1513 14.5436 11.1865 14.3494 11.1865C 14.1548 11.1865 13.9189 11.0892 13.6413 10.8947C 13.3637 10.7003 13.0757 10.4331 12.7771 10.0929C 12.4785 9.75263 12.1418 9.2771 11.7668 8.66626C 11.3921 8.05542 11.0033 7.33349 10.6006 6.50046L 10.2675 5.89633C 10.0592 5.50768 9.77476 4.94177 9.41376 4.19912C 9.05253 3.45617 8.73325 2.73752 8.4557 2.0433C 8.34475 1.75174 8.17807 1.52977 7.95595 1.37703L 7.85171 1.31437C 7.78242 1.25893 7.67118 1.20006 7.51858 1.13733C 7.36576 1.07467 7.2063 1.02973 7.03955 1.00209L 1.33314 1.04352C 0.750019 1.04352 0.354366 1.17562 0.146036 1.43947L 0.0626597 1.56428C 0.0210081 1.63379 0 1.74481 0 1.89763C 0 2.05038 0.0416515 2.23785 0.125028 2.45982C 0.958058 4.41766 1.86396 6.30584 2.84274 8.12465C 3.82151 9.94345 4.67205 11.4086 5.39384 12.5186C 6.11577 13.6295 6.85164 14.6779 7.60144 15.6634C 8.35124 16.6493 8.84756 17.2811 9.09039 17.5586C 9.33352 17.8367 9.52449 18.0446 9.6633 18.1834L 10.1841 18.6831C 10.5173 19.0164 11.0066 19.4156 11.6522 19.8806C 12.298 20.3459 13.0129 20.804 13.7974 21.2556C 14.582 21.7065 15.4947 22.0744 16.5362 22.359C 17.5775 22.6438 18.591 22.7581 19.5768 22.703L 21.9719 22.703C 22.4576 22.661 22.8256 22.5083 23.0758 22.2447L 23.1586 22.1403C 23.2143 22.0574 23.2665 21.9287 23.3146 21.7554C 23.3634 21.5819 23.3876 21.3907 23.3876 21.1827C 23.3734 20.5858 23.4188 20.0479 23.5227 19.5689C 23.6265 19.0901 23.7448 18.7291 23.8771 18.486C 24.0094 18.243 24.1586 18.0381 24.3247 17.8719C 24.4912 17.7054 24.6098 17.6045 24.6794 17.5698C 24.7485 17.5348 24.8037 17.5111 24.8454 17.4969C 25.1786 17.3859 25.5708 17.4934 26.0224 17.82C 26.4737 18.1463 26.897 18.5491 27.293 19.0279C 27.6887 19.5072 28.1642 20.0449 28.7194 20.6418C 29.275 21.2389 29.7609 21.6828 30.1772 21.9748L 30.5936 22.2247C 30.8717 22.3914 31.2327 22.5442 31.677 22.683C 32.1206 22.8217 32.5093 22.8564 32.843 22.7871L 38.1743 22.7039C 38.7016 22.7039 39.112 22.6166 39.403 22.4434C 39.6946 22.2698 39.8679 22.0786 39.9238 21.8707C 39.9795 21.6625 39.9825 21.4263 39.9343 21.1622C 39.885 20.8988 39.8363 20.7146 39.7879 20.6105Z" fill="#FFF"/></g>
</svg>