<svg width="34" height="40" viewBox="0 0 34 40" version="1.1" xmlns="http://www.w3.org/2000/svg" xmlns:xlink="http://www.w3.org/1999/xlink">
<g id="YouTube"><path d="M 28.1951 29.2587L 26 29.2587L 26.0102 27.9836C 26.0102 27.4169 26.4756 26.9533 27.044 26.9533L 27.184 26.9533C 27.7538 26.9533 28.2204 27.4169 28.2204 27.9836L 28.1951 29.2587ZM 19.9613 26.5262C 19.4044 26.5262 18.9489 26.9004 18.9489 27.3587L 18.9489 33.56C 18.9489 34.0173 19.4044 34.3907 19.9613 34.3907C 20.5204 34.3907 20.9764 34.0173 20.9764 33.56L 20.9764 27.3587C 20.9764 26.9 20.5204 26.5262 19.9613 26.5262ZM 33.3333 23.0573L 33.3333 34.8547C 33.3333 37.6844 30.8796 40 27.88 40L 5.45378 40C 2.45333 40 0 37.6844 0 34.8547L 0 23.0573C 0 20.2276 2.45333 17.9116 5.45378 17.9116L 27.88 17.9116C 30.8796 17.9116 33.3333 20.2276 33.3333 23.0573ZM 6.94978 36.1356L 6.948 23.7084L 9.728 23.7093L 9.728 21.868L 2.31733 21.8569L 2.31733 23.6671L 4.63067 23.6738L 4.63067 36.1356L 6.94978 36.1356ZM 15.2831 25.5596L 12.9653 25.5596L 12.9653 32.1956C 12.9653 33.1556 13.0236 33.6356 12.9618 33.8049C 12.7733 34.3196 11.9262 34.8662 11.596 33.8604C 11.54 33.6844 11.5893 33.1533 11.5884 32.2413L 11.5791 25.5596L 9.27422 25.5596L 9.28133 32.1364C 9.28311 33.1444 9.25867 33.896 9.28933 34.2382C 9.34578 34.8413 9.32578 35.5444 9.88533 35.9462C 10.928 36.6973 12.9267 35.8342 13.4267 34.7604L 13.4222 36.1307L 15.2836 36.1329L 15.2831 25.5596ZM 22.6978 33.1587L 22.6929 27.6356C 22.6911 25.5307 21.1164 24.2702 18.9791 25.9733L 18.9884 21.8671L 16.6733 21.8707L 16.6622 36.044L 18.5662 36.0164L 18.7396 35.1338C 21.172 37.3653 22.7013 35.836 22.6978 33.1587ZM 29.9516 32.4267L 28.2138 32.436C 28.2129 32.5049 28.2102 32.5844 28.2093 32.6711L 28.2093 33.6409C 28.2093 34.16 27.7804 34.5827 27.2596 34.5827L 26.9191 34.5827C 26.3973 34.5827 25.9684 34.16 25.9684 33.6409L 25.9684 33.5333L 25.9684 32.4667L 25.9684 31.0902L 29.948 31.0902L 29.948 29.5924C 29.948 28.4978 29.92 27.4036 29.8293 26.7778C 29.5444 24.7982 26.7658 24.484 25.3622 25.4973C 24.9218 25.8138 24.5853 26.2373 24.3898 26.8062C 24.1924 27.3756 24.0942 28.1533 24.0942 29.1413L 24.0942 32.4347C 24.0951 37.9093 30.7449 37.1356 29.9516 32.4267ZM 21.0369 14.5476C 21.1564 14.8382 21.3422 15.0738 21.5942 15.2516C 21.8431 15.4267 22.1613 15.5147 22.5427 15.5147C 22.8769 15.5147 23.1729 15.4244 23.4307 15.2382C 23.6876 15.0529 23.904 14.776 24.0809 14.4067L 24.0369 15.316L 26.6204 15.316L 26.6204 4.32889L 24.5867 4.32889L 24.5867 12.88C 24.5867 13.3431 24.2053 13.7222 23.7391 13.7222C 23.2756 13.7222 22.8929 13.3431 22.8929 12.88L 22.8929 4.32889L 20.7702 4.32889L 20.7702 11.7396C 20.7702 12.6836 20.7876 13.3129 20.8156 13.632C 20.8444 13.9489 20.9173 14.2529 21.0369 14.5476ZM 13.2076 8.34222C 13.2076 7.28756 13.2956 6.464 13.4702 5.87022C 13.6462 5.27867 13.9622 4.80311 14.42 4.44444C 14.8764 4.084 15.4609 3.90356 16.1716 3.90356C 16.7693 3.90356 17.2813 4.02089 17.7089 4.25067C 18.1387 4.48178 18.4702 4.78178 18.7 5.152C 18.9342 5.52356 19.0933 5.90533 19.1782 6.296C 19.2649 6.692 19.3076 7.28933 19.3076 8.09511L 19.3076 10.8738C 19.3076 11.8929 19.2667 12.6427 19.1871 13.1187C 19.1084 13.596 18.9396 14.0387 18.6778 14.4538C 18.42 14.8644 18.0871 15.1716 17.6836 15.3676C 17.2756 15.5653 16.8089 15.6622 16.2818 15.6622C 15.6929 15.6622 15.1969 15.5809 14.788 15.4111C 14.3778 15.2422 14.0609 14.9876 13.8351 14.6493C 13.6071 14.3107 13.4467 13.8982 13.3498 13.4173C 13.2524 12.9369 13.2062 12.2142 13.2062 11.2511L 13.2076 8.34222ZM 15.2311 12.7067C 15.2311 13.3289 15.6942 13.8369 16.2582 13.8369C 16.8227 13.8369 17.284 13.3289 17.284 12.7067L 17.284 6.85778C 17.284 6.23644 16.8227 5.72844 16.2582 5.72844C 15.6942 5.72844 15.2311 6.23644 15.2311 6.85778L 15.2311 12.7067ZM 8.08089 15.66L 10.5182 15.66L 10.5209 7.23333L 13.4009 0.0146667L 10.7351 0.0146667L 9.204 5.37644L 7.65111 0L 5.01289 0L 8.07689 7.23733L 8.08089 15.66Z" fill="#9192BD"/></g>
</svg>