<svg width="47" height="47" viewBox="0 0 47 47" version="1.1" xmlns="http://www.w3.org/2000/svg" xmlns:xlink="http://www.w3.org/1999/xlink">
<g id="Canvas" fill="none">
<g id="Rectangle 27.2">
<rect width="31" height="47" rx="2" fill="#FEBF45"/>
</g>
<g id="Rectangle 27.3">
<path d="M 0 2C 0 0.895431 0.895431 0 2 0L 9 0C 10.1046 0 11 0.895431 11 2L 11 16.7929C 11 17.2456 10.8201 17.6799 10.5 18C 10.1799 18.3201 10 18.7544 10 19.2071L 10 29.2929C 10 29.7456 10.1799 30.1799 10.5 30.5C 10.8201 30.8201 11 31.2544 11 31.7071L 11 45C 11 46.1046 10.1046 47 9 47L 2 47C 0.895431 47 0 46.1046 0 45L 0 31.7071C 0 31.2544 0.179855 30.8201 0.5 30.5C 0.820145 30.1799 1 29.7456 1 29.2929L 1 19.2071C 1 18.7544 0.820145 18.3201 0.5 18C 0.179855 17.6799 0 17.2456 0 16.7929L 0 2Z" transform="translate(36 0)" fill="#FEBF45"/>
</g>
<g id="Rectangle 30.1">
<rect width="25" height="36" transform="translate(3 3)" fill="white"/>
</g>
<g id="Rectangle 31.14">
<rect width="3" height="3" rx="1.5" transform="translate(14 41)" fill="white"/>
</g>
<g id="+7">
<path d="M 3.408 14.416L 3.408 11.392L 0.544 11.392L 0.544 10.048L 3.408 10.048L 3.408 7.024L 4.8 7.024L 4.8 10.048L 7.664 10.048L 7.664 11.392L 4.8 11.392L 4.8 14.416L 3.408 14.416ZM 10.8911 16C 10.9338 15.0933 11.0138 14.2667 11.1311 13.52C 11.2485 12.7627 11.4138 12.0427 11.6271 11.36C 11.8511 10.6773 12.1338 10.016 12.4751 9.376C 12.8165 8.72533 13.2325 8.05867 13.7231 7.376L 8.90712 7.376L 8.90712 5.824L 15.7391 5.824L 15.7391 6.944C 15.1418 7.68 14.6565 8.384 14.2831 9.056C 13.9205 9.71733 13.6325 10.4 13.4191 11.104C 13.2058 11.7973 13.0511 12.5387 12.9551 13.328C 12.8698 14.1173 12.8058 15.008 12.7631 16L 10.8911 16Z" transform="translate(7 11)" fill="#FEBF45"/>
</g>
</g>
</svg>