<svg width="72" height="72" viewBox="0 0 72 72" version="1.1" xmlns="http://www.w3.org/2000/svg" xmlns:xlink="http://www.w3.org/1999/xlink">
<path d="M 2.32258 0L 0 0L 0 2.32258L 2.32258 2.32258L 2.32258 0Z" transform="translate(10.4516 33.6775)" fill="white"/>
<path d="M 2.32258 0L 0 0L 0 2.32258L 2.32258 2.32258L 2.32258 0Z" transform="translate(8.12903 30.1936)" fill="white"/>
<path d="M 2.32258 0L 0 0L 0 2.32258L 2.32258 2.32258L 2.32258 0Z" transform="translate(18.5806 36)" fill="white"/>
<path d="M 2.32258 0L 0 0L 0 2.32258L 2.32258 2.32258L 2.32258 0Z" transform="translate(23.2258 33.6775)" fill="white"/>
<path d="M 6.96774 13.9355C 10.8105 13.9355 13.9355 10.8105 13.9355 6.96774C 13.9355 3.12503 10.8105 0 6.96774 0C 3.12503 0 0 3.12503 0 6.96774C 0 10.8105 3.12503 13.9355 6.96774 13.9355ZM 2.50955 5.73561L 4.37574 6.81329L 5.53703 4.80193L 3.65807 3.71613C 4.23871 3.12503 4.97961 2.70232 5.80645 2.48748L 5.80645 4.64516L 8.12903 4.64516L 8.12903 2.48748C 8.95471 2.70232 9.69677 3.12503 10.2774 3.71613L 8.39962 4.80077L 9.56091 6.81213L 11.4271 5.73445C 11.5351 6.13045 11.6129 6.53806 11.6129 6.96774C 11.6129 7.39742 11.5351 7.80503 11.4259 8.19987L 9.55974 7.12219L 8.39845 9.13355L 10.2774 10.2194C 9.69677 10.8105 8.95471 11.2332 8.12903 11.448L 8.12903 9.29032L 5.80645 9.29032L 5.80645 11.448C 4.98077 11.2332 4.23871 10.8105 3.65807 10.2194L 5.53587 9.13471L 4.37458 7.12335L 2.50839 8.20103C 2.40039 7.80503 2.32258 7.39742 2.32258 6.96774C 2.32258 6.53806 2.40039 6.13045 2.50955 5.73561Z" transform="translate(49.9355 53.4194)" fill="white"/>
<path d="M 69.6774 69.6774L 69.6774 48.7742L 67.3548 48.7742L 67.3548 41.8064L 63.871 41.8064L 63.871 28.5526C 64.6037 27.3321 65.0323 25.9107 65.0323 24.3871C 65.0323 21.5036 63.5179 18.972 61.2488 17.5285L 50.7519 5.79832C 49.7474 2.44916 46.6397 0 42.9677 0C 40.1156 0 37.6061 1.48065 36.1544 3.71032L 22.6312 16.5565C 21.4246 17.7027 20.7476 19.2507 20.7255 20.9148C 20.7105 22.1272 21.053 23.2839 21.6906 24.2803L 15.437 30.5338L 17.0791 32.1759L 23.2966 25.9583C 24.3581 26.7213 25.5972 27.1219 26.8467 27.1208C 28.332 27.1208 29.8208 26.5796 30.9995 25.4915L 41.2142 16.0618C 41.5637 16.1396 41.9214 16.193 42.2872 16.2232L 48.816 23.5672C 48.7881 23.8378 48.7742 24.1107 48.7742 24.3871C 48.7742 25.9107 49.2039 27.3321 49.9355 28.5526L 49.9355 41.8064L 46.4516 41.8064L 46.4516 48.7742L 44.129 48.7742L 44.129 69.6774L 23.2258 69.6774L 23.2258 48.7742L 20.9032 48.7742L 20.9032 46.4516L 23.2258 46.4516L 23.2258 44.129L 20.7859 44.129C 20.2459 41.4825 17.9013 39.4839 15.0968 39.4839L 4.64516 39.4839L 4.64516 44.129L 2.32258 44.129L 2.32258 46.4516L 4.64516 46.4516L 4.64516 48.7742L 2.32258 48.7742L 2.32258 69.6774L 0 69.6774L 0 72L 2.32258 72L 23.2258 72L 44.129 72L 69.6774 72L 72 72L 72 69.6774L 69.6774 69.6774ZM 6.96774 41.8064L 15.0968 41.8064C 16.6088 41.8064 17.8862 42.7808 18.367 44.129L 6.96774 44.129L 6.96774 41.8064ZM 6.96774 46.4516L 18.5806 46.4516L 18.5806 48.7742L 6.96774 48.7742L 6.96774 46.4516ZM 20.9032 58.0645L 18.5806 58.0645L 18.5806 60.3871L 20.9032 60.3871L 20.9032 69.6774L 4.64516 69.6774L 4.64516 60.3871L 16.2581 60.3871L 16.2581 58.0645L 4.64516 58.0645L 4.64516 51.0968L 20.9032 51.0968L 20.9032 58.0645ZM 62.7097 24.3871C 62.7097 27.5888 60.1049 30.1935 56.9032 30.1935C 53.7015 30.1935 51.0968 27.5888 51.0968 24.3871C 51.0968 21.1854 53.7015 18.5806 56.9032 18.5806C 60.1049 18.5806 62.7097 21.1854 62.7097 24.3871ZM 61.5484 31.0483L 61.5484 41.8064L 52.2581 41.8064L 52.2581 31.0483C 53.5761 31.9703 55.1764 32.5161 56.9032 32.5161C 58.6301 32.5161 60.2303 31.9703 61.5484 31.0483ZM 29.4248 23.7844C 27.9197 25.1733 25.6099 25.128 24.1618 23.6799C 23.4314 22.9494 23.0354 21.9774 23.0493 20.945C 23.0632 19.9126 23.4825 18.9511 24.2315 18.2404L 34.841 8.16039C 34.8526 11.1147 36.4517 13.6951 38.8243 15.1084L 29.4248 23.7844ZM 42.9596 13.9355C 39.7614 13.9297 37.1613 11.3272 37.1613 8.12903C 37.1613 4.92735 39.7661 2.32258 42.9677 2.32258C 46.1694 2.32258 48.7742 4.92735 48.7742 8.12903C 48.7742 11.3284 46.1717 13.932 42.9724 13.9355L 42.9596 13.9355ZM 49.5639 20.916L 45.151 15.9515C 48.1366 15.1165 50.429 12.6197 50.9679 9.52258L 56.9985 16.2627C 56.9671 16.2627 56.9357 16.2581 56.9032 16.2581C 53.6644 16.2581 50.8692 18.1672 49.5639 20.916ZM 48.7742 44.129L 49.9355 44.129L 63.871 44.129L 65.0323 44.129L 65.0323 48.7742L 48.7742 48.7742L 48.7742 44.129ZM 67.3548 69.6774L 46.4516 69.6774L 46.4516 51.0968L 67.3548 51.0968L 67.3548 69.6774Z" fill="white"/>
</svg>