<svg width="72" height="74" viewBox="0 0 72 74" version="1.1" xmlns="http://www.w3.org/2000/svg" xmlns:xlink="http://www.w3.org/1999/xlink">
<g id="Vector">
<path d="M 51.0968 52.2581L 40.6452 52.2581L 40.6452 51.7215C 42.9538 51.2001 45.1243 50.3013 47.1205 49.0436L 49.1377 51.0619L 55.7071 44.4925L 53.6888 42.4754C 54.9465 40.4791 55.8441 38.3086 56.3667 36L 59.2258 36L 59.2258 29.0323L 63.871 29.0323L 63.871 26.7097L 61.5484 26.7097C 61.5484 14.6369 53.0779 4.25148 41.3292 1.75587C 40.7265 0.711871 39.6116 0 38.3226 0L 33.6774 0C 32.3884 0 31.2735 0.711871 30.6708 1.75587C 18.9221 4.25148 10.4516 14.6369 10.4516 26.7097L 8.12903 26.7097L 8.12903 29.0323L 12.7742 29.0323L 12.7742 36L 15.6333 36C 16.1547 38.3086 17.0535 40.4791 18.3112 42.4754L 16.2929 44.4925L 22.8623 51.0619L 24.8795 49.0436C 26.8757 50.3013 29.0462 51.199 31.3548 51.7215L 31.3548 52.2581L 20.9032 52.2581C 20.6849 52.2581 20.4724 52.2848 20.2552 52.2906L 13.7253 45.7595C 13.8646 45.209 13.9355 44.6621 13.9355 44.129C 13.9355 39.521 9.40761 35.8723 4.61497 37.5921L 2.89394 38.2123L 6.48697 41.8065L 4.64516 43.6483L 1.05097 40.0541L 0.430839 41.7751C 0.145161 42.5717 0 43.3637 0 44.129C 0 47.9717 3.12503 51.0968 6.96774 51.0968C 7.50077 51.0968 8.04774 51.0259 8.59819 50.8866L 11.9926 54.2799C 4.9169 57.6337 0 64.8256 0 73.1613L 2.32258 73.1613C 2.32258 67.9111 4.5209 63.1719 8.03497 59.789C 11.088 63.5667 12.7742 68.299 12.7742 73.1613L 15.0968 73.1613C 15.0968 72.3832 15.048 71.6087 14.9714 70.8387L 34.8387 70.8387L 34.8387 73.1613L 37.1613 73.1613L 37.1613 70.8387L 57.0286 70.8387C 56.952 71.6087 56.9032 72.3832 56.9032 73.1613L 59.2258 73.1613C 59.2258 68.299 60.912 63.5667 63.965 59.789C 67.4791 63.1719 69.6774 67.9111 69.6774 73.1613L 72 73.1613C 72 61.6355 62.6226 52.2581 51.0968 52.2581ZM 12.7742 26.7097C 12.7742 16.0676 20.016 6.86671 30.1935 4.24916L 30.1935 17.4194L 32.5161 17.4194L 32.5161 3.48387C 32.5161 2.84284 33.0364 2.32258 33.6774 2.32258L 38.3226 2.32258C 38.9636 2.32258 39.4839 2.84284 39.4839 3.48387L 39.4839 17.4194L 41.8064 17.4194L 41.8064 4.24916C 51.984 6.86671 59.2258 16.0676 59.2258 26.7097L 57.2272 26.7097L 56.0659 30.1936L 15.9341 30.1936L 14.7728 26.7097L 12.7742 26.7097ZM 46.3831 32.5161C 45.8036 37.7338 41.371 41.8065 36 41.8065C 30.629 41.8065 26.1964 37.7338 25.6169 32.5161L 46.3831 32.5161ZM 25.3928 46.5991L 24.595 46.0428L 22.8612 47.7778L 19.5759 44.4925L 21.3108 42.7587L 20.7546 41.9609C 19.2194 39.7568 18.1997 37.2914 17.7259 34.6332L 17.5564 33.6774L 15.0968 33.6774L 15.0968 32.5161L 23.285 32.5161C 23.8738 39.017 29.3481 44.129 36 44.129C 42.6519 44.129 48.1262 39.017 48.715 32.5161L 56.9032 32.5161L 56.9032 33.6774L 54.4436 33.6774L 54.2741 34.6343C 53.8003 37.2914 52.7806 39.7568 51.2454 41.9621L 50.6892 42.7599L 52.4241 44.4937L 49.1388 47.779L 47.405 46.044L 46.6072 46.6003C 44.4031 48.1355 41.9377 49.1551 39.2795 49.6289L 38.3226 49.7985L 38.3226 52.2581L 33.6774 52.2581L 33.6774 49.7985L 32.7205 49.6277C 30.0635 49.1539 27.5981 48.1343 25.3928 46.5991ZM 9.22761 48.2307L 8.53316 48.4792C 7.98387 48.6778 7.47174 48.7742 6.96774 48.7742C 4.57781 48.7742 2.60361 46.9603 2.34929 44.6377L 4.64516 46.9324L 9.7711 41.8065L 7.47639 39.5106C 9.79897 39.7649 11.6129 41.7391 11.6129 44.129C 11.6129 44.633 11.5165 45.1452 11.3179 45.6956L 11.0694 46.3901L 17.2754 52.596C 16.2674 52.7737 15.2837 53.0175 14.3303 53.3346L 9.22761 48.2307ZM 34.8387 68.5161L 14.616 68.5161C 13.8658 64.7884 12.2284 61.2697 9.81174 58.2898C 12.9112 55.9719 16.7435 54.5806 20.9032 54.5806L 24.9677 54.5806L 34.8387 67.7427L 34.8387 68.5161ZM 36 65.419L 27.871 54.5806L 31.3548 54.5806L 40.6452 54.5806L 44.129 54.5806L 36 65.419ZM 57.384 68.5161L 37.1613 68.5161L 37.1613 67.7427L 47.0323 54.5806L 51.0968 54.5806C 55.2565 54.5806 59.0888 55.9719 62.1883 58.2898C 59.7716 61.2697 58.1354 64.7884 57.384 68.5161Z" fill="white"/>
</g>
<g id="Vector_2">
<path d="M 37.1613 0L 0 0L 0 2.32258L 37.1613 2.32258L 37.1613 0Z" transform="translate(17.4194 24.3872)" fill="white"/>
</g>
</svg>