<svg width="72" height="73" viewBox="0 0 72 73" version="1.1" xmlns="http://www.w3.org/2000/svg" xmlns:xlink="http://www.w3.org/1999/xlink">
<path d="M 29.0323 43.2337L 28.1183 43.2337L 34.1826 37.1694L 32.0145 35.0001C 32.3779 34.2883 32.6845 33.5462 32.9319 32.7821L 36 32.7821L 36 23.4917L 32.9307 23.4917C 32.6834 22.7276 32.3756 21.9855 32.0133 21.2737L 34.1814 19.1044L 27.6132 12.5361L 27.3728 12.7765C 26.2812 7.87006 23.4197 3.45948 19.2542 0.483097L 18.5806 0L 17.9059 0.481936C 13.7404 3.45716 10.879 7.86774 9.78735 12.7754L 9.54697 12.535L 2.97871 19.1032L 5.14684 21.2725C 4.78335 21.9844 4.47677 22.7265 4.22942 23.4906L 1.16129 23.4906L 1.16129 32.7809L 4.23058 32.7809C 4.47793 33.545 4.78568 34.2871 5.148 34.999L 2.97987 37.1683L 9.04297 43.2337L 8.12903 43.2337C 3.64761 43.2337 5.31596e-08 46.8813 5.31596e-08 51.3627L 5.31596e-08 60.653L 2.32258 60.653C 2.32258 57.4514 4.92735 54.8466 8.12903 54.8466L 9.29032 54.8466L 10.4516 54.8466L 12.7742 54.8466L 12.7742 65.2982L 15.0968 65.2982L 15.0968 54.8466L 17.4194 54.8466L 17.4194 72.2659L 19.7419 72.2659L 19.7419 54.8466L 22.0645 54.8466L 22.0645 65.2982L 24.3871 65.2982L 24.3871 54.8466L 26.7097 54.8466L 27.871 54.8466L 29.0323 54.8466C 32.2339 54.8466 34.8387 57.4514 34.8387 60.653L 37.1613 60.653L 37.1613 51.3627C 37.1613 46.8813 33.5137 43.2337 29.0323 43.2337ZM 11.6129 17.2243C 11.6129 11.6257 14.2026 6.32439 18.5806 2.87884C 22.9587 6.32439 25.5484 11.6245 25.5484 17.2243L 25.5484 28.1369C 25.5484 31.9796 22.4234 35.1046 18.5806 35.1046C 14.7379 35.1046 11.6129 31.9796 11.6129 28.1369L 11.6129 17.2243ZM 9.29032 52.524L 8.12903 52.524C 5.85639 52.524 3.79858 53.4612 2.32258 54.9685L 2.32258 51.3627C 2.32258 48.161 4.92735 45.5563 8.12903 45.5563L 9.29032 45.5563L 9.29032 52.524ZM 25.5484 52.524L 11.6129 52.524L 11.6129 41.6741L 11.7174 41.5695C 12.4293 41.933 13.1714 42.2396 13.9355 42.487L 13.9355 45.5563L 23.2258 45.5563L 23.2258 42.487C 23.9899 42.2396 24.732 41.9319 25.4439 41.5695L 25.5484 41.6741L 25.5484 52.524ZM 27.6132 40.4535L 25.8317 38.6745L 25.0572 39.132C 24.0364 39.7359 22.932 40.1923 21.7742 40.4907L 20.9032 40.716L 20.9032 43.2337L 16.2581 43.2337L 16.2581 40.716L 15.3871 40.4907C 14.2293 40.1923 13.1249 39.7359 12.1041 39.132L 11.3295 38.6745L 9.54813 40.4535L 6.264 37.1694L 8.0431 35.388L 7.58555 34.6134C 6.98168 33.5926 6.52529 32.4883 6.22684 31.3305L 6.00155 30.4595L 3.48387 30.4595L 3.48387 25.8143L 6.00155 25.8143L 6.22684 24.9434C 6.52529 23.7855 6.98168 22.6812 7.58555 21.6604L 8.0431 20.8858L 6.264 19.1044L 9.32632 16.0421C 9.3031 16.4334 9.29032 16.8283 9.29032 17.2243L 9.29032 28.1369C 9.29032 33.2594 13.4582 37.4272 18.5806 37.4272C 23.7031 37.4272 27.871 33.2594 27.871 28.1369L 27.871 17.2243C 27.871 16.8283 27.8582 16.4346 27.835 16.0421L 30.8973 19.1044L 29.1182 20.8858L 29.5757 21.6604C 30.1796 22.6812 30.636 23.7855 30.9344 24.9434L 31.1597 25.8143L 33.6774 25.8143L 33.6774 30.4595L 31.1597 30.4595L 30.9344 31.3305C 30.636 32.4883 30.1796 33.5926 29.5757 34.6134L 29.1182 35.388L 30.8973 37.1694L 27.6132 40.4535ZM 34.8387 54.9685C 33.3627 53.4612 31.3049 52.524 29.0323 52.524L 27.871 52.524L 27.871 45.5563L 29.0323 45.5563C 32.2339 45.5563 34.8387 48.161 34.8387 51.3627L 34.8387 54.9685Z" transform="translate(17.4194 0)" fill="white"/>
<path d="M 2.32258 0L -2.16183e-06 0L -2.16183e-06 2.32258L 2.32258 2.32258L 2.32258 0Z" transform="translate(39.4839 67.6208)" fill="white"/>
<path d="M 2.32258 0L 0 0L 0 2.32258L 2.32258 2.32258L 2.32258 0Z" transform="translate(30.1935 67.6208)" fill="white"/>
<path d="M 2.32258 0L -2.16183e-06 0L -2.16183e-06 6.96774L 2.32258 6.96774L 2.32258 0Z" transform="translate(44.129 58.3306)" fill="white"/>
<path d="M 2.32258 0L 0 0L 0 6.96774L 2.32258 6.96774L 2.32258 0Z" transform="translate(25.5484 58.3306)" fill="white"/>
<path d="M 5.80645 11.6129C 9.00813 11.6129 11.6129 9.00813 11.6129 5.80645C 11.6129 2.60477 9.00813 1.06319e-07 5.80645 1.06319e-07C 2.60477 1.06319e-07 5.31597e-08 2.60477 5.31597e-08 5.80645C 5.31597e-08 9.00813 2.60477 11.6129 5.80645 11.6129ZM 5.80645 2.32258C 7.72723 2.32258 9.29032 3.88568 9.29032 5.80645C 9.29032 7.72723 7.72723 9.29032 5.80645 9.29032C 3.88568 9.29032 2.32258 7.72723 2.32258 5.80645C 2.32258 3.88568 3.88568 2.32258 5.80645 2.32258Z" transform="translate(30.1935 14.2014)" fill="white"/>
<path d="M 2.32258 35.9849C 2.32258 22.4245 10.2983 10.4632 22.4884 5.14916L 21.0681 7.51587L 23.0597 8.71084L 27.4215 1.44116L 18.7711 -1.5228e-09L 18.3902 2.29123L 21.8857 2.87419C 8.66787 8.47974 1.24593e-09 21.3666 1.24593e-09 35.9849C 1.24593e-09 46.2054 4.37458 55.9835 11.9996 62.8107L 13.5488 61.0804C 6.41381 54.6921 2.32258 45.5458 2.32258 35.9849Z" transform="translate(0 0.281006)" fill="white"/>
<path d="M 15.8923 59.227C 22.2747 52.5519 25.8968 43.6378 25.8968 34.3498C 25.8968 18.5388 15.7692 4.73458 0.696776 -2.76873e-08L -1.27583e-06 2.21574C 14.1004 6.64606 23.5742 19.5596 23.5742 34.3498C 23.5742 43.2743 20.0079 51.8342 13.7311 58.1295L 14.2606 55.4806L 11.9834 55.0243L 10.4923 62.4809L 19.1195 61.0432L 18.7386 58.752L 15.8923 59.227Z" transform="translate(46.1032 1.91602)" fill="white"/>
</svg>